<svg xmlns="http://www.w3.org/2000/svg" width="60" height="60" viewBox="0 0 60 60"><g transform="translate(0 0)"><circle cx="30" cy="30" r="30" fill="#79b7ee"/></g><g transform="translate(12.252 19.031)"><path d="M51.413,41.338c-8.665,0-8.676,8.632-8.676,8.677,0,0-.594,8.643,8.676,8.643,0,0,7.731.44,7.731-6.015h-3.97s.132,2.43-3.629,2.43a3.67,3.67,0,0,1-3.97-3.926h11.7S60.563,41.338,51.413,41.338Zm-3.882,6.785a4.032,4.032,0,0,1,3.97-3.475,3.348,3.348,0,0,1,3.442,3.475ZM37.613,45.9s3.442-.253,3.442-4.3-2.815-6.015-6.389-6.015H22.91v22.6H34.665s7.181.22,7.181-6.675C41.847,51.51,42.155,45.9,37.613,45.9ZM28.09,39.6h6.576s1.595,0,1.595,2.353-.935,2.694-2,2.694H28.09Zm6.246,14.571H28.09V48.123h6.576s2.387-.022,2.375,3.112C37.041,53.874,35.271,54.149,34.336,54.171ZM46.553,36.918V39.7h9.325V36.918Z" transform="translate(-22.91 -35.587)" fill="#f1f2f2"/></g></svg>